<svg xmlns="http://www.w3.org/2000/svg" id="punk-never-die_svg_Ebene_14" viewBox="0 0 768 768"><path d="m591.56 158.21-100.68 37.91v20.11a56 56 0 0 1 24.75-5.7c6.19 0 12.15 1 17.73 2.84z" style="stroke:#001f33;stroke-linecap:round;stroke-linejoin:round;stroke-width:4px;fill:#8f46c4"/><path d="m350.09 156.2-53.88 2.01-38.27-128.66z" style="fill:#e64ab6;stroke:#001f33;stroke-linecap:round;stroke-linejoin:round;stroke-width:4px"/><path d="m342.27 79.18-84.33-49.63 92.15 126.65 29.05-27.63z" style="stroke:#001f33;stroke-linecap:round;stroke-linejoin:round;stroke-width:4px;fill:#8f46c4"/><path d="m365.73 5.44-23.46 73.74 36.87 49.39z" style="fill:#e64ab6;stroke:#001f33;stroke-linecap:round;stroke-linejoin:round;stroke-width:4px"/><path d="M431.42 128.57h-52.28L365.73 5.44l45.88 74.29z" style="stroke:#001f33;stroke-linecap:round;stroke-linejoin:round;stroke-width:4px;fill:#8f46c4"/><path d="m466.09 9.84-54.48 69.89 19.81 48.84z" style="fill:#e64ab6;stroke:#001f33;stroke-linecap:round;stroke-linejoin:round;stroke-width:4px"/><path d="M476.55 128.57h-45.13L466.09 9.84z" style="stroke:#001f33;stroke-linecap:round;stroke-linejoin:round;stroke-width:4px;fill:#8f46c4"/><path d="m553.04 54.97-62.16 73.6h-14.33l-2.65-30.09z" style="fill:#e64ab6;stroke:#001f33;stroke-linecap:round;stroke-linejoin:round;stroke-width:4px"/><path d="m490.88 196.13 26.51-47.06 35.65-94.1-62.16 73.6z" style="stroke:#001f33;stroke-linecap:round;stroke-linejoin:round;stroke-width:4px;fill:#8f46c4"/><path d="m591.56 158.21-74.17-9.14-26.51 47.06z" style="fill:#e64ab6;stroke:#001f33;stroke-linecap:round;stroke-linejoin:round;stroke-width:4px"/></svg>